<?xml version="1.0" encoding="utf-8"?>
<!-- Generator: Adobe Illustrator 23.0.2, SVG Export Plug-In . SVG Version: 6.00 Build 0)  -->
<svg version="1.1" id="图层_1" xmlns="http://www.w3.org/2000/svg" xmlns:xlink="http://www.w3.org/1999/xlink" x="0px" y="0px"
	 viewBox="0 0 350.22 350.22" style="enable-background:new 0 0 350.22 350.22;" xml:space="preserve">
<style type="text/css">
	.st0{fill:#E9513E;}
</style>
<g>
	<path class="st0" d="M177.33,85.89c-1.03-1.03-2.71-1.03-3.74,0l-23.22,23.22c-1.03,1.03-1.03,2.71,0,3.74l23.22,23.22
		c1.03,1.03,2.71,1.03,3.74,0l23.22-23.22c1.03-1.03,1.03-2.71,0-3.74L177.33,85.89z"/>
	<path class="st0" d="M293.53,0H56.69C25.51,0,0,25.51,0,56.69v236.83c0,31.18,25.51,56.69,56.69,56.69h236.83
		c31.18,0,56.69-25.51,56.69-56.69V56.69C350.22,25.51,324.71,0,293.53,0z M251.39,232.26l-76.18,76.18l-2.16-2.16
		c-0.12-0.2-0.41-0.54-0.92-1.05l-6.61-6.61c-6.07-6.07-6.93-15.36-2.61-22.36l51.91-51.91c3.12-3.12,3.12-8.19,0-11.31
		c-3.12-3.12-8.19-3.12-11.31,0l-61.89,61.89l-1.76-1.75c-0.01-0.14-0.3-0.52-0.97-1.18l-6.61-6.61c-6.24-6.24-6.99-15.9-2.24-22.96
		l49.02-49.02c3.12-3.12,3.12-8.19,0-11.31c-3.12-3.12-8.19-3.12-11.31,0l-59.53,59.53l-9.4-9.38c-7.09-7.09-7.09-18.59,0-25.68
		l38.54-38.54c-18.69-12.29-31.03-33.45-31.03-57.49c0-37.98,30.79-68.77,68.77-68.77c37.98,0,68.77,30.79,68.77,68.77
		c0,24.04-12.34,45.19-31.03,57.49l38.54,38.54C258.48,213.67,258.48,225.16,251.39,232.26z"/>
</g>
</svg>
